<svg width="48" height="48" viewBox="0 0 48 48" fill="none" xmlns="http://www.w3.org/2000/svg">
<g clip-path="url(#clip0_142_143)">
<path d="M16.0001 48C20.4162 48 24.0002 44.4159 24.0002 39.9999V31.9999H16.0001C11.5841 31.9999 8 35.5839 8 39.9999C8 44.4159 11.5841 48 16.0001 48Z" fill="#0ACF83"/>
<path d="M8 23.9999C8 19.5839 11.5841 15.9999 16.0001 15.9999H24.0002V31.9998H16.0001C11.5841 32 8 28.4159 8 23.9999Z" fill="#A259FF"/>
<path d="M8 8.00006C8 3.58406 11.5841 0 16.0001 0H24.0002V15.9999H16.0001C11.5841 15.9999 8 12.4161 8 8.00006Z" fill="#F24E1E"/>
<path d="M24 0H32.0001C36.4162 0 40.0002 3.58406 40.0002 8.00006C40.0002 12.4161 36.4162 15.9999 32.0001 15.9999H24V0Z" fill="#FF7262"/>
<path d="M40.0002 23.9999C40.0002 28.4159 36.4162 32 32.0001 32C27.5841 32 24 28.4159 24 23.9999C24 19.5839 27.5841 15.9999 32.0001 15.9999C36.4162 15.9999 40.0002 19.5839 40.0002 23.9999Z" fill="#1ABCFE"/>
</g>
<defs>
<clipPath id="clip0_142_143">
<rect width="48" height="48" fill="white"/>
</clipPath>
</defs>
</svg>
