<svg width="24" height="24" viewBox="0 0 24 24" fill="none" xmlns="http://www.w3.org/2000/svg">
<g clip-path="url(#clip0_149_69)">
<path d="M18 -7.62939e-06H8C7.02823 0.00127075 6.0779 0.285698 5.26521 0.818491C4.45252 1.35129 3.81271 2.10935 3.424 2.99999H2C1.73478 2.99999 1.48043 3.10535 1.29289 3.29289C1.10536 3.48042 1 3.73478 1 3.99999C1 4.26521 1.10536 4.51956 1.29289 4.7071C1.48043 4.89464 1.73478 4.99999 2 4.99999H3V6.99999H2C1.73478 6.99999 1.48043 7.10535 1.29289 7.29289C1.10536 7.48042 1 7.73478 1 7.99999C1 8.26521 1.10536 8.51956 1.29289 8.7071C1.48043 8.89464 1.73478 8.99999 2 8.99999H3V11H2C1.73478 11 1.48043 11.1053 1.29289 11.2929C1.10536 11.4804 1 11.7348 1 12C1 12.2652 1.10536 12.5196 1.29289 12.7071C1.48043 12.8946 1.73478 13 2 13H3V15H2C1.73478 15 1.48043 15.1053 1.29289 15.2929C1.10536 15.4804 1 15.7348 1 16C1 16.2652 1.10536 16.5196 1.29289 16.7071C1.48043 16.8946 1.73478 17 2 17H3V19H2C1.73478 19 1.48043 19.1053 1.29289 19.2929C1.10536 19.4804 1 19.7348 1 20C1 20.2652 1.10536 20.5196 1.29289 20.7071C1.48043 20.8946 1.73478 21 2 21H3.424C3.81271 21.8906 4.45252 22.6487 5.26521 23.1815C6.0779 23.7143 7.02823 23.9987 8 24H18C19.3256 23.9984 20.5964 23.4711 21.5338 22.5338C22.4711 21.5964 22.9984 20.3256 23 19V4.99999C22.9984 3.6744 22.4711 2.40355 21.5338 1.46621C20.5964 0.528874 19.3256 0.00158023 18 -7.62939e-06V-7.62939e-06ZM21 19C21 19.7956 20.6839 20.5587 20.1213 21.1213C19.5587 21.6839 18.7956 22 18 22H8C7.20435 22 6.44129 21.6839 5.87868 21.1213C5.31607 20.5587 5 19.7956 5 19V4.99999C5 4.20434 5.31607 3.44128 5.87868 2.87867C6.44129 2.31606 7.20435 1.99999 8 1.99999H18C18.7956 1.99999 19.5587 2.31606 20.1213 2.87867C20.6839 3.44128 21 4.20434 21 4.99999V19ZM13 12C13.7956 12 14.5587 11.6839 15.1213 11.1213C15.6839 10.5587 16 9.79564 16 8.99999C16 8.20434 15.6839 7.44128 15.1213 6.87867C14.5587 6.31606 13.7956 5.99999 13 5.99999C12.2044 5.99999 11.4413 6.31606 10.8787 6.87867C10.3161 7.44128 10 8.20434 10 8.99999C10 9.79564 10.3161 10.5587 10.8787 11.1213C11.4413 11.6839 12.2044 12 13 12ZM18 18C18 18.2652 17.8946 18.5196 17.7071 18.7071C17.5196 18.8946 17.2652 19 17 19C16.7348 19 16.4804 18.8946 16.2929 18.7071C16.1054 18.5196 16 18.2652 16 18C16 17.2043 15.6839 16.4413 15.1213 15.8787C14.5587 15.3161 13.7956 15 13 15C12.2044 15 11.4413 15.3161 10.8787 15.8787C10.3161 16.4413 10 17.2043 10 18C10 18.2652 9.89464 18.5196 9.70711 18.7071C9.51957 18.8946 9.26522 19 9 19C8.73478 19 8.48043 18.8946 8.29289 18.7071C8.10536 18.5196 8 18.2652 8 18C8.211 11.392 17.791 11.394 18 18Z" fill="#374957"/>
</g>
<defs>
<clipPath id="clip0_149_69">
<rect width="24" height="24" fill="white"/>
</clipPath>
</defs>
</svg>
