<svg width="24" height="24" viewBox="0 0 24 24" fill="none" xmlns="http://www.w3.org/2000/svg">
<g clip-path="url(#clip0_149_470)">
<path d="M14.4995 6.99994C13.5679 6.98545 12.6687 7.34155 11.9995 7.98994C11.4851 7.50956 10.84 7.19211 10.1456 7.07756C9.45108 6.96301 8.73824 7.05648 8.09678 7.34621C7.45531 7.63594 6.9139 8.10897 6.54071 8.70575C6.16752 9.30253 5.97922 9.99638 5.99954 10.6999C5.99954 13.9559 10.8735 17.4359 11.4295 17.8209C11.5969 17.9371 11.7958 17.9993 11.9995 17.9993C12.2033 17.9993 12.4021 17.9371 12.5695 17.8209C13.1255 17.4359 17.9995 13.9559 17.9995 10.6999C18.0243 9.74565 17.6699 8.82044 17.0138 8.12695C16.3578 7.43345 15.4537 7.0282 14.4995 6.99994ZM11.9995 15.7619C10.2585 14.4319 7.99954 12.2019 7.99954 10.6999C7.92354 8.69394 10.9125 8.29994 10.9995 10.4539V10.9999C10.9995 11.2652 11.1049 11.5195 11.2924 11.707C11.48 11.8946 11.7343 11.9999 11.9995 11.9999C12.2648 11.9999 12.5191 11.8946 12.7066 11.707C12.8942 11.5195 12.9995 11.2652 12.9995 10.9999V10.4539C13.0865 8.30194 16.0755 8.69394 15.9995 10.6999C15.9995 12.1999 13.7405 14.4319 11.9995 15.7619ZM12.8355 0.0279418C11.1213 -0.0918502 9.40126 0.157943 7.79189 0.760424C6.18251 1.3629 4.7213 2.30402 3.50713 3.52009C2.29295 4.73617 1.35411 6.19884 0.754146 7.80915C0.154179 9.41947 -0.0929306 11.1399 0.0295365 12.8539C0.469537 19.2079 6.08154 23.9999 13.0825 23.9999H18.9995C20.3251 23.9984 21.596 23.4711 22.5333 22.5337C23.4707 21.5964 23.9979 20.3255 23.9995 18.9999V12.3399C24.0366 9.25745 22.9063 6.27503 20.8356 3.99136C18.7648 1.70769 15.9069 0.291807 12.8355 0.0279418ZM21.9995 18.9999C21.9995 19.7956 21.6835 20.5587 21.1209 21.1213C20.5582 21.6839 19.7952 21.9999 18.9995 21.9999H13.0825C7.04854 21.9999 2.39954 18.0999 2.02454 12.7159C1.92187 11.2869 2.12746 9.85257 2.62738 8.50995C3.12731 7.16732 3.90989 5.94779 4.92214 4.93392C5.93439 3.92006 7.15267 3.13554 8.4945 2.63348C9.83634 2.13142 11.2704 1.92355 12.6995 2.02394C15.266 2.25098 17.6515 3.44085 19.3766 5.3545C21.1018 7.26814 22.0389 9.76376 21.9995 12.3399V18.9999Z" fill="#374957"/>
</g>
<defs>
<clipPath id="clip0_149_470">
<rect width="24" height="24" fill="white"/>
</clipPath>
</defs>
</svg>
