<svg width="24" height="24" viewBox="0 0 24 24" fill="none" xmlns="http://www.w3.org/2000/svg">
<path d="M13.932 4C14.7454 4.00079 15.5253 4.32428 16.1005 4.89947C16.6757 5.47466 16.9992 6.25456 17 7.068C17 7.33322 17.1054 7.58757 17.2929 7.77511C17.4804 7.96264 17.7348 8.068 18 8.068C18.2652 8.068 18.5196 7.96264 18.7071 7.77511C18.8946 7.58757 19 7.33322 19 7.068V7C19 6.981 19 6.964 19 6.945C18.9666 5.62273 18.4181 4.36578 17.4714 3.44206C16.5247 2.51833 15.2547 2.00088 13.932 2H13V1C13 0.734784 12.8946 0.48043 12.7071 0.292893C12.5196 0.105357 12.2652 0 12 0C11.7348 0 11.4804 0.105357 11.2929 0.292893C11.1054 0.48043 11 0.734784 11 1V2H10.068C8.86532 2.00128 7.70229 2.43023 6.78679 3.21018C5.8713 3.99012 5.26301 5.07022 5.07065 6.25742C4.8783 7.44462 5.11441 8.66154 5.73679 9.69066C6.35917 10.7198 7.32726 11.494 8.468 11.875L11 12.72V20H10.068C9.25456 19.9992 8.47466 19.6757 7.89947 19.1005C7.32428 18.5253 7.00079 17.7454 7 16.932C7 16.6668 6.89464 16.4124 6.70711 16.2249C6.51957 16.0374 6.26522 15.932 6 15.932C5.73478 15.932 5.48043 16.0374 5.29289 16.2249C5.10536 16.4124 5 16.6668 5 16.932V17C5 17.019 5 17.036 5 17.055C5.03337 18.3773 5.58186 19.6342 6.52856 20.5579C7.47527 21.4817 8.74531 21.9991 10.068 22H11V23C11 23.2652 11.1054 23.5196 11.2929 23.7071C11.4804 23.8946 11.7348 24 12 24C12.2652 24 12.5196 23.8946 12.7071 23.7071C12.8946 23.5196 13 23.2652 13 23V22H13.932C15.1347 21.9987 16.2977 21.5698 17.2132 20.7898C18.1287 20.0099 18.737 18.9298 18.9293 17.7426C19.1217 16.5554 18.8856 15.3385 18.2632 14.3093C17.6408 13.2802 16.6727 12.506 15.532 12.125L13 11.28V4H13.932ZM14.902 14.021C15.5934 14.2511 16.1804 14.7198 16.5577 15.3432C16.9351 15.9666 17.0782 16.704 16.9615 17.4233C16.8448 18.1426 16.4759 18.7969 15.9208 19.269C15.3657 19.7411 14.6607 20.0003 13.932 20H13V13.387L14.902 14.021ZM11 10.613L9.1 9.979C8.40874 9.74893 7.82191 9.28037 7.44453 8.65718C7.06716 8.034 6.92387 7.29685 7.0403 6.57768C7.15674 5.8585 7.5253 5.20422 8.08003 4.73194C8.63476 4.25966 9.33946 4.00021 10.068 4H11V10.613Z" fill="#374957"/>
</svg>
